<svg width="15" height="10" viewBox="0 0 15 10" fill="none" xmlns="http://www.w3.org/2000/svg">
<path d="M14.6698 0.844158C14.4584 0.623793 14.1716 0.499999 13.8725 0.499999C13.5735 0.499999 13.2867 0.623793 13.0753 0.844158L7.49319 6.66269L1.91111 0.844159C1.69843 0.630039 1.41357 0.51156 1.11789 0.514238C0.822215 0.516916 0.539375 0.640538 0.330292 0.858478C0.121209 1.07642 0.00261236 1.37124 4.31853e-05 1.67944C-0.00252694 1.98764 0.111139 2.28457 0.316557 2.50626L6.69591 9.15584C6.90739 9.37621 7.19417 9.5 7.49319 9.5C7.79222 9.5 8.079 9.37621 8.29047 9.15584L14.6698 2.50626C14.8812 2.28583 15 1.9869 15 1.67521C15 1.36352 14.8812 1.06459 14.6698 0.844158Z" fill="#052F42"/>
</svg>
