<svg width="8" height="8" viewBox="0 0 8 8" fill="none" xmlns="http://www.w3.org/2000/svg">
<g clip-path="url(#clip0_2_220)">
<path d="M3.16659 2.83335L3.66659 3.33335L2.66659 4.33335L3.66659 5.33335L3.16659 5.83335L1.66659 4.33335L3.16659 2.83335ZM4.83325 5.83335L4.33325 5.33335L5.33325 4.33335L4.33325 3.33335L4.83325 2.83335L6.33325 4.33335L4.83325 5.83335ZM6.99992 0.666687H0.999919C0.823108 0.666687 0.653538 0.736925 0.528514 0.861949C0.40349 0.986973 0.333252 1.15654 0.333252 1.33335V6.66669C0.333252 6.8435 0.40349 7.01307 0.528514 7.13809C0.653538 7.26312 0.823108 7.33335 0.999919 7.33335H6.99992C7.17673 7.33335 7.3463 7.26312 7.47132 7.13809C7.59635 7.01307 7.66659 6.8435 7.66659 6.66669V1.33335C7.66659 1.15654 7.59635 0.986973 7.47132 0.861949C7.3463 0.736925 7.17673 0.666687 6.99992 0.666687ZM6.99992 6.66669H0.999919V2.00002H6.99992V6.66669Z" fill="#3E3E3E"/>
</g>
<defs>
<clipPath id="clip0_2_220">
<rect width="8" height="8" fill="white"/>
</clipPath>
</defs>
</svg>
