<svg width="8" height="8" viewBox="0 0 8 8" fill="none" xmlns="http://www.w3.org/2000/svg">
<g clip-path="url(#clip0_1_101)">
<path d="M0.000976562 1.5C0.000976562 1.23478 0.106333 0.98043 0.29387 0.792893C0.481406 0.605357 0.73576 0.5 1.00098 0.5H7.00098C7.26619 0.5 7.52055 0.605357 7.70808 0.792893C7.89562 0.98043 8.00098 1.23478 8.00098 1.5V6.5C8.00098 6.76522 7.89562 7.01957 7.70808 7.20711C7.52055 7.39464 7.26619 7.5 7.00098 7.5H1.00098C0.73576 7.5 0.481406 7.39464 0.29387 7.20711C0.106333 7.01957 0.000976563 6.76522 0.000976562 6.5V1.5ZM0.500977 6V6.5C0.500977 6.63261 0.553655 6.75979 0.647423 6.85355C0.741191 6.94732 0.868368 7 1.00098 7H7.00098C7.13358 7 7.26076 6.94732 7.35453 6.85355C7.4483 6.75979 7.50098 6.63261 7.50098 6.5V4.75L5.61248 3.7765C5.56559 3.75301 5.5125 3.74486 5.46073 3.75321C5.40895 3.76155 5.36111 3.78597 5.32398 3.823L3.46898 5.678L2.13898 4.792C2.09096 4.76003 2.03336 4.74565 1.97595 4.7513C1.91853 4.75695 1.86484 4.78228 1.82398 4.823L0.500977 6ZM3.00098 2.75C3.00098 2.55109 2.92196 2.36032 2.78131 2.21967C2.64065 2.07902 2.44989 2 2.25098 2C2.05206 2 1.8613 2.07902 1.72065 2.21967C1.57999 2.36032 1.50098 2.55109 1.50098 2.75C1.50098 2.94891 1.57999 3.13968 1.72065 3.28033C1.8613 3.42098 2.05206 3.5 2.25098 3.5C2.44989 3.5 2.64065 3.42098 2.78131 3.28033C2.92196 3.13968 3.00098 2.94891 3.00098 2.75Z" fill="#3E3E3E"/>
</g>
<defs>
<clipPath id="clip0_1_101">
<rect width="8" height="8" fill="#3E3E3E"/>
</clipPath>
</defs>
</svg>
