<svg width="12" height="14" viewBox="0 0 12 14" fill="none" xmlns="http://www.w3.org/2000/svg">
<path d="M0.6 0H3.9C4.05913 0 4.21174 0.0632142 4.32426 0.175736C4.43679 0.288258 4.5 0.44087 4.5 0.6V12.9C4.5 13.0591 4.43679 13.2117 4.32426 13.3243C4.21174 13.4368 4.05913 13.5 3.9 13.5H0.6C0.44087 13.5 0.288258 13.4368 0.175736 13.3243C0.063214 13.2117 0 13.0591 0 12.9V0.6C0 0.44087 0.063214 0.288258 0.175736 0.175736C0.288258 0.0632142 0.44087 0 0.6 0ZM8.1 0H11.4C11.5591 0 11.7117 0.0632142 11.8243 0.175736C11.9368 0.288258 12 0.44087 12 0.6V12.9C12 13.0591 11.9368 13.2117 11.8243 13.3243C11.7117 13.4368 11.5591 13.5 11.4 13.5H8.1C7.94087 13.5 7.78826 13.4368 7.67574 13.3243C7.56321 13.2117 7.5 13.0591 7.5 12.9V0.6C7.5 0.44087 7.56321 0.288258 7.67574 0.175736C7.78826 0.0632142 7.94087 0 8.1 0Z" fill="white"/>
</svg>
