<svg width="8" height="8" viewBox="0 0 8 8" fill="none" xmlns="http://www.w3.org/2000/svg">
<path d="M7.25 6.5C7.25 6.5663 7.22366 6.62989 7.17678 6.67678C7.12989 6.72366 7.0663 6.75 7 6.75H1C0.933696 6.75 0.870107 6.72366 0.823223 6.67678C0.776339 6.62989 0.75 6.5663 0.75 6.5C0.75 6.4337 0.776339 6.37011 0.823223 6.32322C0.870107 6.27634 0.933696 6.25 1 6.25H7C7.0663 6.25 7.12989 6.27634 7.17678 6.32322C7.22366 6.37011 7.25 6.4337 7.25 6.5ZM7.25 1.75V5.25C7.25 5.38261 7.19732 5.50979 7.10355 5.60355C7.00979 5.69732 6.88261 5.75 6.75 5.75H1.25C1.11739 5.75 0.990215 5.69732 0.896447 5.60355C0.802678 5.50979 0.75 5.38261 0.75 5.25V1.75C0.75 1.61739 0.802678 1.49021 0.896447 1.39645C0.990215 1.30268 1.11739 1.25 1.25 1.25H6.75C6.88261 1.25 7.00979 1.30268 7.10355 1.39645C7.19732 1.49021 7.25 1.61739 7.25 1.75ZM5.125 3.5C5.12499 3.45983 5.1153 3.42026 5.09675 3.38463C5.0782 3.349 5.05134 3.31836 5.01844 3.29531L3.76844 2.42031C3.73098 2.39407 3.68704 2.37861 3.64141 2.37561C3.59577 2.37261 3.55019 2.38218 3.50962 2.40329C3.46905 2.4244 3.43504 2.45623 3.41131 2.49532C3.38757 2.53441 3.37501 2.57927 3.375 2.625V4.375C3.37501 4.42073 3.38757 4.46559 3.41131 4.50468C3.43504 4.54377 3.46905 4.5756 3.50962 4.59671C3.55019 4.61782 3.59577 4.62739 3.64141 4.62439C3.68704 4.62139 3.73098 4.60593 3.76844 4.57969L5.01844 3.70469C5.05134 3.68164 5.0782 3.651 5.09675 3.61537C5.1153 3.57974 5.12499 3.54017 5.125 3.5Z" fill="#3E3E3E"/>
</svg>
