<svg width="24" height="24" viewBox="0 0 24 24" fill="none" xmlns="http://www.w3.org/2000/svg">
<path d="M17.252 12.4901C16.968 14.8551 15.419 15.8001 14.75 16.4861C14.08 17.1741 14.2 17.3111 14.245 18.3201C14.2525 18.4449 14.2344 18.57 14.1917 18.6876C14.1491 18.8051 14.0828 18.9127 13.997 19.0037C13.9111 19.0946 13.8076 19.1671 13.6927 19.2165C13.5779 19.2659 13.4541 19.2913 13.329 19.2911H10.671C10.546 19.2909 10.4224 19.2652 10.3077 19.2156C10.193 19.1661 10.0895 19.0936 10.0037 19.0028C9.91791 18.9119 9.85151 18.8045 9.80858 18.6872C9.76565 18.5698 9.74708 18.4449 9.75401 18.3201C9.75401 17.3301 9.84601 17.1001 9.25001 16.4861C8.49001 15.7261 6.70201 14.6531 6.70201 11.7021C6.69744 10.9691 6.84478 10.2431 7.13472 9.56988C7.42466 8.89664 7.85093 8.29077 8.38665 7.79046C8.92238 7.29015 9.55593 6.90624 10.2474 6.66293C10.9389 6.41963 11.6732 6.3222 12.4042 6.3768C13.1352 6.4314 13.8469 6.63684 14.4946 6.98016C15.1422 7.32349 15.7117 7.79725 16.1671 8.3716C16.6226 8.94595 16.9541 9.60842 17.1408 10.3173C17.3276 11.0261 17.3654 11.7659 17.252 12.4901Z" stroke="#abc6f0" stroke-width="1.5" stroke-linecap="round" stroke-linejoin="round"/>
<path fill-rule="evenodd" clip-rule="evenodd" d="M12 1.62695C12.4142 1.62695 12.75 1.96274 12.75 2.37695V3.85995C12.75 4.27417 12.4142 4.60995 12 4.60995C11.5857 4.60995 11.25 4.27417 11.25 3.85995V2.37695C11.25 1.96274 11.5857 1.62695 12 1.62695ZM4.71168 4.05758C5.0057 3.76582 5.48057 3.76765 5.77233 4.06167L7.06433 5.36367C7.35609 5.65769 7.35426 6.13256 7.06024 6.42432C6.76622 6.71609 6.29135 6.71426 5.99959 6.42024L4.70759 5.11823C4.41583 4.82421 4.41766 4.34934 4.71168 4.05758ZM19.3173 4.06062C19.6102 4.35352 19.6102 4.82839 19.3173 5.12128L18.0163 6.42228C17.7234 6.71518 17.2485 6.71518 16.9556 6.42228C16.6627 6.12939 16.6627 5.65452 16.9556 5.36162L18.2566 4.06062C18.5495 3.76773 19.0244 3.76773 19.3173 4.06062ZM9.11543 8.81837C9.67344 8.26011 10.4303 7.94631 11.2196 7.94595C11.6338 7.94577 11.9698 8.2814 11.97 8.69562C11.9701 9.10983 11.6345 9.44577 11.2203 9.44595C10.8287 9.44613 10.4532 9.60182 10.1763 9.87879C9.89948 10.1558 9.74396 10.5313 9.74396 10.923C9.74396 11.3372 9.40817 11.673 8.99396 11.673C8.57975 11.673 8.24396 11.3372 8.24396 10.923C8.24396 10.1336 8.55742 9.37663 9.11543 8.81837ZM2.08496 11.904C2.08496 11.4897 2.42075 11.154 2.83496 11.154H4.66796C5.08217 11.154 5.41796 11.4897 5.41796 11.904C5.41796 12.3182 5.08217 12.654 4.66796 12.654H2.83496C2.42075 12.654 2.08496 12.3182 2.08496 11.904ZM18.582 11.904C18.582 11.4897 18.9177 11.154 19.332 11.154H21.166C21.5802 11.154 21.916 11.4897 21.916 11.904C21.916 12.3182 21.5802 12.654 21.166 12.654H19.332C18.9177 12.654 18.582 12.3182 18.582 11.904ZM6.06065 16.468C6.35445 16.76 6.35591 17.2348 6.06393 17.5286L4.77192 18.8286C4.47994 19.1224 4.00507 19.1239 3.71127 18.8319C3.41747 18.5399 3.41601 18.0651 3.708 17.7713L5 16.4713C5.29198 16.1775 5.76686 16.176 6.06065 16.468ZM17.9554 16.4698C18.2482 16.1768 18.7231 16.1766 19.0161 16.4694L20.3171 17.7694C20.6101 18.0622 20.6103 18.5371 20.3175 18.8301C20.0247 19.1231 19.5498 19.1233 19.2568 18.8305L17.9558 17.5305C17.6628 17.2377 17.6626 16.7628 17.9554 16.4698ZM10.46 18.486C10.8742 18.486 11.21 18.8217 11.21 19.236V20.748C11.21 20.7486 11.21 20.7493 11.21 20.75H12.79C12.79 20.7493 12.79 20.7486 12.79 20.748V19.236C12.79 18.8217 13.1257 18.486 13.54 18.486C13.9542 18.486 14.29 18.8217 14.29 19.236V20.748C14.29 21.0853 14.1976 21.4245 14.0099 21.7004C13.8249 21.9722 13.4907 22.25 13.026 22.25H10.973C10.5087 22.25 10.1749 21.9719 9.99044 21.701C9.80281 21.4255 9.70996 21.0863 9.70996 20.748V19.236C9.70996 18.8217 10.0457 18.486 10.46 18.486Z" fill="#abc6f0"/>
</svg>
