<svg width="80" height="80" viewBox="0 0 80 80" fill="none" xmlns="http://www.w3.org/2000/svg">
<path d="M40.1569 0.527283C50.6673 0.527283 60.7472 4.70253 68.1792 12.1345C75.6112 19.5665 79.7864 29.6464 79.7864 40.1568C79.7864 50.6672 75.6112 60.7472 68.1792 68.1792C60.7472 75.6111 50.6673 79.7864 40.1569 79.7864C29.6465 79.7864 19.5666 75.6111 12.1346 68.1792C4.70259 60.7472 0.527344 50.6672 0.527344 40.1568C0.527344 29.6464 4.70259 19.5665 12.1346 12.1345C19.5666 4.70253 29.6465 0.527283 40.1569 0.527283ZM40.1569 17.5114C39.4381 17.5107 38.7271 17.66 38.0693 17.9497C37.4115 18.2394 36.8213 18.663 36.3365 19.1937C35.8516 19.7243 35.4828 20.3503 35.2536 21.0315C35.0243 21.7127 34.9397 22.4343 35.0051 23.1501L37.0714 45.8295C37.1516 46.592 37.5112 47.2978 38.0809 47.8109C38.6507 48.3239 39.3902 48.6078 40.1569 48.6078C40.9236 48.6078 41.6631 48.3239 42.2329 47.8109C42.8026 47.2978 43.1622 46.592 43.2423 45.8295L45.3031 23.1501C45.3684 22.4348 45.2839 21.7137 45.055 21.0328C44.8261 20.352 44.4578 19.7263 43.9736 19.1958C43.4894 18.6652 42.8999 18.2414 42.2427 17.9514C41.5856 17.6614 40.8752 17.5115 40.1569 17.5114ZM40.1569 62.8023C41.3581 62.8023 42.5101 62.3251 43.3594 61.4757C44.2088 60.6264 44.686 59.4744 44.686 58.2732C44.686 57.072 44.2088 55.92 43.3594 55.0706C42.5101 54.2213 41.3581 53.7441 40.1569 53.7441C38.9557 53.7441 37.8037 54.2213 36.9543 55.0706C36.105 55.92 35.6278 57.072 35.6278 58.2732C35.6278 59.4744 36.105 60.6264 36.9543 61.4757C37.8037 62.3251 38.9557 62.8023 40.1569 62.8023Z" fill="#EB4949"/>
</svg>
