<svg width="107" height="21" fill="none"
  xmlns="http://www.w3.org/2000/svg">
  <path d="m105.846 6.695-1.274.36a3.352 3.352 0 0 0-.531-.977 2.415 2.415 0 0 0-.898-.695c-.365-.172-.818-.258-1.36-.258-.812 0-1.479.193-2 .578-.52.386-.781.883-.781 1.492 0 .516.177.935.531 1.258.36.318.912.57 1.656.758l1.813.445c1.005.245 1.758.633 2.258 1.164.505.532.758 1.198.758 2 0 .677-.188 1.279-.563 1.805-.375.526-.898.94-1.57 1.242-.667.297-1.44.445-2.321.445-1.171 0-2.138-.263-2.898-.789-.76-.53-1.247-1.296-1.46-2.296l1.335-.329c.172.714.508 1.253 1.008 1.618.505.364 1.169.546 1.992.546.922 0 1.659-.205 2.211-.617.552-.416.828-.937.828-1.562 0-.485-.161-.89-.484-1.219-.323-.333-.813-.578-1.469-.734l-1.961-.47c-1.042-.25-1.813-.645-2.313-1.187-.5-.541-.75-1.213-.75-2.015 0-.662.18-1.242.54-1.742.359-.506.854-.901 1.484-1.188.63-.286 1.349-.43 2.156-.43 1.099 0 1.977.25 2.633.75.661.495 1.138 1.178 1.43 2.047ZM92.707 4.063h1.399v13.164c0 .682-.128 1.27-.383 1.765-.25.5-.615.886-1.094 1.156-.48.276-1.057.415-1.735.415h-.156c-.052 0-.11-.003-.172-.008l.016-1.305h.297c.573 0 1.02-.177 1.344-.531.323-.354.484-.852.484-1.492V4.062ZM93.395 2c-.282 0-.526-.096-.735-.29a.957.957 0 0 1-.304-.71c0-.276.101-.51.304-.703.209-.198.453-.297.734-.297.287 0 .532.099.735.297A.922.922 0 0 1 94.44 1a.947.947 0 0 1-.312.71c-.203.194-.448.29-.735.29ZM87.893 16.18c-.308 0-.573-.11-.797-.328a1.102 1.102 0 0 1-.328-.797c0-.313.109-.578.328-.797.224-.219.49-.328.797-.328.312 0 .578.11.796.328.22.219.329.484.329.797 0 .203-.052.39-.157.562-.099.172-.234.31-.406.414a1.08 1.08 0 0 1-.562.149ZM75.875 9.125v6.938h-3.328v-16h3.234V6.18h.14a3.396 3.396 0 0 1 1.313-1.664c.605-.407 1.362-.61 2.274-.61.833 0 1.56.183 2.18.547.624.36 1.109.878 1.453 1.555.349.672.52 1.476.515 2.414v7.64h-3.328V9.017c.005-.74-.182-1.315-.562-1.727-.375-.411-.901-.617-1.579-.617-.453 0-.854.096-1.203.289a2.049 2.049 0 0 0-.812.844c-.193.364-.292.804-.297 1.32ZM70.178 7.484l-3.047.188a1.575 1.575 0 0 0-.336-.703 1.783 1.783 0 0 0-.68-.508c-.276-.13-.606-.195-.992-.195-.516 0-.95.109-1.305.328-.354.213-.53.5-.53.86 0 .286.114.528.343.726.229.198.622.356 1.18.476l2.171.438c1.167.24 2.037.625 2.61 1.156.573.531.86 1.23.86 2.094 0 .786-.233 1.476-.696 2.07-.459.594-1.089 1.057-1.89 1.39-.798.329-1.717.493-2.759.493-1.588 0-2.854-.33-3.797-.992-.937-.667-1.486-1.573-1.648-2.72l3.273-.17c.1.483.34.853.72 1.108.38.25.867.375 1.46.375.584 0 1.052-.111 1.407-.335.359-.23.541-.524.546-.883a.918.918 0 0 0-.382-.742c-.25-.198-.636-.35-1.157-.454l-2.078-.414c-1.172-.234-2.044-.64-2.617-1.218-.568-.579-.852-1.316-.852-2.211 0-.771.209-1.435.625-1.993.422-.557 1.013-.987 1.774-1.289.766-.302 1.661-.453 2.687-.453 1.516 0 2.709.32 3.579.961.874.64 1.385 1.513 1.53 2.617ZM50.853 16.29c-.765 0-1.447-.134-2.046-.4a3.294 3.294 0 0 1-1.422-1.195c-.344-.53-.516-1.192-.516-1.984 0-.667.123-1.227.367-1.68a2.973 2.973 0 0 1 1-1.094 4.851 4.851 0 0 1 1.438-.624c.541-.141 1.11-.24 1.703-.297.698-.073 1.26-.141 1.688-.204.427-.067.736-.166.93-.296.192-.13.288-.323.288-.579v-.046c0-.495-.156-.878-.468-1.149-.308-.27-.745-.406-1.313-.406-.599 0-1.076.133-1.43.398-.354.26-.588.589-.703.985l-3.078-.25c.156-.73.464-1.36.922-1.89.458-.537 1.05-.949 1.773-1.235.73-.292 1.573-.438 2.532-.438.666 0 1.304.078 1.914.235a5.008 5.008 0 0 1 1.633.726c.479.328.856.75 1.132 1.266.276.51.414 1.122.414 1.836v8.093h-3.156v-1.664h-.094c-.192.375-.45.706-.773.993a3.58 3.58 0 0 1-1.164.664c-.453.156-.977.234-1.57.234Zm.954-2.298c.49 0 .921-.096 1.296-.289.375-.198.67-.463.883-.797.214-.333.32-.71.32-1.133V10.5c-.103.068-.247.13-.429.188a7.806 7.806 0 0 1-.602.148 29.7 29.7 0 0 1-.672.117l-.609.086c-.39.057-.732.149-1.023.274a1.637 1.637 0 0 0-.68.507c-.161.209-.242.47-.242.782 0 .453.164.799.492 1.039.333.234.755.351 1.266.351ZM37.867 16.258a4.53 4.53 0 0 1-2.476-.703c-.735-.474-1.318-1.17-1.75-2.086-.427-.922-.641-2.052-.641-3.39 0-1.376.221-2.52.664-3.43.443-.917 1.031-1.602 1.766-2.055a4.524 4.524 0 0 1 2.43-.688c.671 0 1.231.115 1.68.344a3.23 3.23 0 0 1 1.093.844c.281.333.495.661.64.984h.102V.062h3.32v16h-3.28v-1.921h-.142a4.288 4.288 0 0 1-.664.992 3.3 3.3 0 0 1-1.101.805c-.448.213-.995.32-1.64.32Zm1.055-2.649c.536 0 .99-.146 1.36-.437.374-.297.66-.711.859-1.242.203-.532.304-1.154.304-1.867 0-.714-.099-1.334-.297-1.86-.198-.526-.484-.932-.859-1.219-.375-.286-.83-.43-1.367-.43-.547 0-1.008.15-1.383.446-.375.297-.659.708-.852 1.234-.192.526-.289 1.136-.289 1.829 0 .697.097 1.315.29 1.851.197.531.481.948.851 1.25.375.297.836.445 1.383.445Z" fill="#fff"/>
  <g clip-path="url(#a)">
    <path d="M0 1v8.04h7.598V1H0Zm8.824 0v8.04h7.72V1h-7.72Zm8.946 0v8.04H25V1h-7.23ZM0 10.24v4.56h7.598v-4.56H0Zm8.824 0v4.56h7.72v-4.56h-7.72Zm8.946 0v4.56H25v-4.56h-7.23ZM0 16v3h7.598v-3H0Zm8.824 0v3h7.72v-3h-7.72Zm8.946 0v3H25v-3h-7.23Z" fill="#06F"/>
  </g>
  <defs>
    <clipPath id="a">
      <path fill="#fff" transform="translate(0 1)" d="M0 0h25v18H0z"/>
    </clipPath>
  </defs>
</svg>