<svg width="172" height="37" viewBox="0 0 172 37" fill="none" xmlns="http://www.w3.org/2000/svg">
<path d="M30.7355 2.17786C17.5141 -3.75228 4.58156 3.14708 1.1224 14.2005C-0.740232 20.1564 2.35393 26.042 10.3989 27.429C0.360726 17.5309 15.7692 -0.451596 30.7355 2.17786Z" fill="#36B4A7"/>
<path d="M5.68555 26.6418L10.2269 32.3819C18.3174 40.494 35.722 35.3331 39.3434 21.4344C39.9745 17.3021 39.8697 12.5669 37.6628 7.9436C34.6725 21.8067 19.7507 31.3493 5.68555 26.6418Z" fill="#64BA93"/>
<path d="M31.7662 32.4235C34.7219 30.2129 36.902 27.7794 38.183 24.747C44.8382 9.08612 34.2619 -3.5721 18.6318 4.18361C25.2959 1.40466 34.0324 2.13924 37.4292 7.9486C43.0903 17.6685 35.2916 30.6762 31.7662 32.4235Z" fill="#DBDFE2"/>
<path d="M23.558 25.3727C15.51 27.9645 0.923555 28.312 0.693075 17.5883C0.644605 16.0973 0.956198 15.2152 1.18866 13.7659L0.720772 15.1479C-2.97679 27.2488 12.9866 30.7831 23.558 25.3727Z" fill="white"/>
<path d="M62.5079 34.9767H60.1893V24.746C58.2228 27.2527 55.7954 28.506 52.9069 28.506C50.2846 28.506 48.0748 27.515 46.2745 25.5331C44.4969 23.5867 43.6086 21.2255 43.6086 18.4506C43.6086 15.7112 44.5167 13.3679 46.3328 11.4205C48.149 9.47318 50.3628 8.5 52.9732 8.5C55.9615 8.5 58.3672 9.82958 60.1883 12.4877V8.99005H62.5069V34.9767H62.5079ZM60.2704 18.6416C60.2704 16.4696 59.5938 14.639 58.2426 13.152C56.8914 11.6651 55.189 10.9216 53.1364 10.9216C50.3776 10.9216 48.3201 12.1937 46.963 14.738C46.3121 15.9468 45.9866 17.2249 45.9866 18.5723C45.9866 19.9207 46.3121 21.2008 46.963 22.4155C47.6138 23.6293 48.4883 24.5767 49.5863 25.2559C50.6843 25.936 51.8624 26.2756 53.1206 26.2756C54.3897 26.2756 55.5926 25.939 56.7291 25.2658C57.8657 24.5916 58.7401 23.6798 59.3524 22.5294C59.9648 21.379 60.2704 20.0831 60.2704 18.6416Z" fill="#383838"/>
<path d="M82.7556 18.3159C82.7556 20.4592 82.5627 22.1581 82.1769 23.4164C81.6467 25.1281 80.6802 26.4389 79.2786 27.3467C78.1084 28.1041 76.6454 28.4822 74.8906 28.4822C71.4344 28.4822 69.094 27.0556 67.8684 24.2034C67.2828 22.864 66.991 20.8433 66.991 18.1416V8.98901H69.4639V17.8535C69.4639 20.0405 69.5737 21.5294 69.7923 22.3204C70.1316 23.5302 70.7894 24.4727 71.7638 25.1469C72.6837 25.7756 73.757 26.0894 74.9845 26.0894C76.1775 26.0894 77.224 25.7924 78.1222 25.1994C79.0738 24.5598 79.7326 23.6639 80.0937 22.5125C80.3232 21.7809 80.4379 20.2276 80.4379 17.8535V8.98901H82.7565V18.3159H82.7556Z" fill="#383838"/>
<path d="M105.631 28.015H103.313V24.745C101.346 27.2517 98.9199 28.5051 96.0314 28.5051C93.4101 28.5051 91.1993 27.5141 89.4 25.5321C87.6224 23.5857 86.7341 21.2246 86.7341 18.4496C86.7341 15.7102 87.6422 13.3669 89.4583 11.4195C91.2745 9.4722 93.4873 8.49902 96.0987 8.49902C99.086 8.49902 101.492 9.8286 103.314 12.4858V8.98809H105.632V28.015H105.631ZM103.441 18.6416C103.441 16.4696 102.765 14.639 101.415 13.1521C100.062 11.6651 98.36 10.9216 96.3074 10.9216C93.5486 10.9216 91.4911 12.1937 90.1339 14.738C89.4831 15.9468 89.1576 17.2249 89.1576 18.5723C89.1576 19.9207 89.4831 21.2008 90.1339 22.4155C90.7848 23.6293 91.6593 24.5767 92.7572 25.2559C93.8552 25.936 95.0334 26.2756 96.2916 26.2756C97.5607 26.2756 98.7636 25.939 99.9001 25.2658C101.037 24.5916 101.911 23.6798 102.523 22.5294C103.135 21.379 103.441 20.0831 103.441 18.6416Z" fill="#383838"/>
<path d="M112.432 28.0151H110.113V1.71753H112.432V28.0151Z" fill="#64BA93"/>
<path d="M134.999 28.015H132.68V24.745C130.714 27.2517 128.288 28.5051 125.399 28.5051C122.778 28.5051 120.567 27.5141 118.768 25.5321C116.99 23.5857 116.102 21.2246 116.102 18.4496C116.102 15.7102 117.01 13.3669 118.826 11.4195C120.642 9.4722 122.855 8.49902 125.466 8.49902C128.454 8.49902 130.859 9.8286 132.681 12.4858V8.98809H135V28.015H134.999ZM132.773 18.6416C132.773 16.4696 132.097 14.639 130.747 13.1521C129.394 11.6651 127.692 10.9216 125.639 10.9216C122.881 10.9216 120.823 12.1937 119.466 14.738C118.815 15.9468 118.49 17.2249 118.49 18.5723C118.49 19.9207 118.815 21.2008 119.466 22.4155C120.117 23.6293 120.991 24.5767 122.089 25.2559C123.187 25.936 124.365 26.2756 125.624 26.2756C126.893 26.2756 128.096 25.939 129.232 25.2658C130.369 24.5916 131.243 23.6798 131.856 22.5294C132.467 21.379 132.773 20.0831 132.773 18.6416Z" fill="#64BA93"/>
<path d="M158.708 18.5635C158.708 21.3068 157.806 23.6501 156.002 25.5915C154.199 27.5329 152.001 28.5031 149.41 28.5031C146.476 28.5031 144.094 27.1785 142.263 24.5273V28.0151H139.944V1.71753H142.263V12.3027C144.193 9.80291 146.597 8.55352 149.476 8.55352C152.079 8.55352 154.268 9.53363 156.043 11.4919C157.821 13.4511 158.708 15.8083 158.708 18.5635ZM156.408 18.5021C156.408 17.1547 156.083 15.8707 155.431 14.651C154.78 13.4313 153.905 12.4809 152.807 11.8017C151.709 11.1226 150.537 10.782 149.291 10.782C148.022 10.782 146.816 11.1226 145.674 11.8017C144.532 12.4809 143.655 13.3966 143.042 14.547C142.43 15.6974 142.123 16.9923 142.123 18.4328C142.123 20.6059 142.8 22.4354 144.151 23.9224C145.502 25.4094 147.206 26.1529 149.257 26.1529C152.016 26.1529 154.079 24.8807 155.449 22.3364C156.088 21.1276 156.408 19.8505 156.408 18.5021Z" fill="#64BA93"/>
<path d="M171.746 22.9304C171.746 24.5402 171.221 25.8747 170.17 26.936C169.12 27.9973 167.825 28.5279 166.288 28.5279C164.065 28.5279 162.29 27.632 160.962 25.8381L162.422 24.0907C163.602 25.4886 164.855 26.1876 166.179 26.1876C167.051 26.1876 167.826 25.8886 168.505 25.2896C169.183 24.6917 169.523 23.9393 169.523 23.0334C169.523 22.1167 169.119 21.3088 168.314 20.6118C167.917 20.2634 167.133 19.7753 165.963 19.1476C164.628 18.4259 163.651 17.7101 163.034 16.9993C162.195 16.045 161.775 14.9035 161.775 13.5759C161.775 12.0968 162.248 10.889 163.194 9.95146C164.139 9.01393 165.315 8.54565 166.72 8.54565C168.379 8.54565 170.049 9.40201 171.73 11.1137L170.24 12.7383C169.003 11.481 167.795 10.8524 166.614 10.8524C165.896 10.8524 165.261 11.1009 164.71 11.5998C164.158 12.0978 163.882 12.7175 163.882 13.4591C163.882 14.7094 165.031 15.9608 167.326 17.2112C168.739 17.9814 169.765 18.716 170.405 19.4149C171.299 20.3931 171.746 21.5662 171.746 22.9304Z" fill="#64BA93"/>
</svg>
